<svg width="20" height="20" viewBox="0 0 20 20" fill="none" xmlns="http://www.w3.org/2000/svg">
<path d="M18.9139 4C19.5135 4 19.9999 4.48637 19.9999 5.08594V14.3428C19.9999 14.9423 19.5135 15.4287 18.9139 15.4287H18.2284C17.7475 15.4287 17.3397 15.1158 17.1971 14.6826L17.5907 15.0762C18.0007 15.486 18.6661 15.4861 19.076 15.0762C19.486 14.6662 19.4859 14.0009 19.076 13.5908L17.4852 12L19.076 10.4092C19.4604 10.0247 19.4838 9.41625 19.1473 9.00391L19.076 8.92383L18.996 8.85254C18.611 8.53848 18.0557 8.53854 17.6708 8.85254L17.5907 8.92383L17.1424 9.37207V5.08594C17.1424 4.4864 17.6289 4.00005 18.2284 4H18.9139ZM18.0682 14.7227C18.067 14.7218 18.0655 14.7215 18.0643 14.7207L17.9999 14.667C18.0211 14.6882 18.0443 14.7063 18.0682 14.7227ZM18.7206 14.6025L18.6669 14.667C18.6882 14.6456 18.7061 14.6218 18.7225 14.5977C18.7216 14.5991 18.7215 14.6011 18.7206 14.6025Z" fill="#555555"/>
<path d="M13.2001 5.9043C13.7996 5.9043 14.2859 6.39074 14.286 6.99023V8.82031C13.9035 8.53964 13.3747 8.54981 13.0038 8.85254L12.9237 8.92383C12.5138 9.33379 12.5139 9.99915 12.9237 10.4092L14.286 11.7715V12.2285L12.9237 13.5908C12.5139 14.0008 12.5138 14.6662 12.9237 15.0762C13.0957 15.2482 13.3128 15.3464 13.537 15.374C13.4308 15.4087 13.3178 15.4287 13.2001 15.4287H12.5145C11.9149 15.4287 11.4286 14.9423 11.4286 14.3428V6.99023C11.4287 6.39074 11.915 5.9043 12.5145 5.9043H13.2001ZM13.2733 9.40723L13.2294 9.48926C13.2523 9.4324 13.2868 9.37908 13.3329 9.33301C13.3099 9.35594 13.2905 9.38119 13.2733 9.40723Z" fill="#555555"/>
<path d="M16 11.3334L18 9.33333C18.1841 9.14924 18.4826 9.14924 18.6667 9.33334C18.8508 9.51743 18.8508 9.8159 18.6667 10L16.6666 12L18.6667 14C18.8508 14.1841 18.8508 14.4826 18.6667 14.6667C18.4826 14.8508 18.1841 14.8508 18 14.6667L16 12.6667L14 14.6667C13.8159 14.8508 13.5174 14.8508 13.3333 14.6667C13.1492 14.4826 13.1492 14.1841 13.3333 14L15.3333 12L13.3333 10C13.1492 9.81591 13.1492 9.51743 13.3333 9.33334C13.5174 9.14924 13.8159 9.14924 14 9.33334L16 11.3334Z" fill="url(#paint0_linear_23_50)"/>
<rect x="5.71429" y="8.7619" width="2.85714" height="6.66667" rx="1.08562" fill="#555555"/>
<rect y="10.6667" width="2.85714" height="4.7619" rx="1.08562" fill="#555555"/>
<defs>
<linearGradient id="paint0_linear_23_50" x1="21" y1="16" x2="14.6508" y2="16.9772" gradientUnits="userSpaceOnUse">
<stop stop-color="#FF148A"/>
<stop offset="1" stop-color="#FF1D4E"/>
</linearGradient>
</defs>
</svg>
