<svg width="21" height="21" viewBox="0 0 21 21" fill="none" xmlns="http://www.w3.org/2000/svg">
<g clip-path="url(#clip0_24_2)">
<path d="M13.3445 14.6532C13.3918 14.6532 13.8663 14.6532 14.1104 14.6571C15.1499 14.6768 15.5869 15.1867 15.5869 16.0608C15.5869 16.9724 15.1085 17.5 14.0808 17.5H13.3445V14.6532ZM13.8308 15.0489V17.1043H14.0887C14.6734 17.1043 15.0849 16.8267 15.0849 16.0628C15.0849 15.3245 14.7148 15.0489 14.1005 15.0489H13.8308ZM16.2898 16.5924C16.2878 16.9389 16.4631 17.185 16.7918 17.185C17.0182 17.185 17.1974 17.0866 17.2525 16.8779H17.6896C17.6187 17.3031 17.2132 17.5394 16.8017 17.5394C16.213 17.5394 15.8114 17.1437 15.8114 16.5038C15.8114 15.8797 16.1638 15.4249 16.7741 15.4249C17.3746 15.4249 17.6975 15.8325 17.6975 16.4467V16.5924H16.2898ZM16.2878 16.2951H17.2447C17.2447 15.9998 17.0911 15.7695 16.7722 15.7695C16.4552 15.7695 16.2878 16.0333 16.2878 16.2951ZM18.5845 17.5295C18.0568 17.5295 17.9978 17.2401 17.9978 16.9507V14.5744H18.4663V16.8956C18.4663 17.0728 18.5352 17.1712 18.6967 17.185L18.799 17.1889V17.4902C18.7282 17.5138 18.6494 17.5295 18.5845 17.5295Z" fill="#F3F3F3"/>
<path fill-rule="evenodd" clip-rule="evenodd" d="M0.900024 12.9125C0.900024 12.1876 1.48765 11.6 2.21252 11.6H7.90002C8.6249 11.6 9.21252 12.1876 9.21252 12.9125V18.6C9.21252 19.3248 8.6249 19.9125 7.90002 19.9125H2.21252C1.48765 19.9125 0.900024 19.3248 0.900024 18.6V12.9125Z" stroke="#F3F3F3" stroke-width="1.4" stroke-linecap="round" stroke-linejoin="round"/>
<path fill-rule="evenodd" clip-rule="evenodd" d="M11.8375 12.9125C11.8375 12.1876 12.4252 11.6 13.15 11.6H18.8375C19.5624 11.6 20.15 12.1876 20.15 12.9125V18.6C20.15 19.3248 19.5624 19.9125 18.8375 19.9125H13.15C12.4252 19.9125 11.8375 19.3248 11.8375 18.6V12.9125Z" stroke="url(#paint0_linear_24_2)" stroke-width="1.4" stroke-linecap="round" stroke-linejoin="round"/>
<path fill-rule="evenodd" clip-rule="evenodd" d="M0.900024 2.41248C0.900024 1.6876 1.48765 1.09998 2.21252 1.09998H13.5875C14.3124 1.09998 14.9 1.6876 14.9 2.41248V7.66247C14.9 8.38735 14.3124 8.97498 13.5875 8.97498H2.21252C1.48765 8.97498 0.900024 8.38735 0.900024 7.66248V2.41248Z" stroke="#F3F3F3" stroke-width="1.4" stroke-linecap="round" stroke-linejoin="round"/>
<path d="M5.61438 3.29314C6.30563 3.29314 6.80001 3.76126 6.86126 4.35189H6.29907C6.23563 4.00407 5.99938 3.73939 5.59907 3.73939C5.09595 3.73939 4.80938 4.08064 4.80938 4.90532C4.80938 5.73657 5.09595 6.09751 5.59907 6.09751C5.99938 6.09751 6.23563 5.80001 6.29907 5.45001H6.86126C6.78907 6.02532 6.44345 6.54376 5.61438 6.54376C4.74376 6.54376 4.22095 5.91157 4.22095 4.89876C4.22095 3.88814 4.73938 3.29314 5.61438 3.29314ZM8.56139 4.61439H8.05608L8.05827 5.91157C8.05827 6.11282 8.11952 6.1347 8.29233 6.1347H8.57233V6.47157C8.51108 6.49564 8.39733 6.51751 8.20264 6.51751C7.66452 6.51751 7.52452 6.29439 7.52452 5.93126V4.61439H7.15702V4.23814H7.53983L7.67327 3.56657H8.05608V4.23595H8.56139V4.61439ZM8.97613 6.50001V4.23814H9.48581V4.72814C9.59519 4.39126 9.85769 4.19439 10.1814 4.19439C10.2339 4.19439 10.2864 4.20095 10.3127 4.21407V4.72376C10.2799 4.71064 10.2208 4.70407 10.1836 4.70407C9.74613 4.66907 9.50769 4.84845 9.50769 5.18532V6.50001H8.97613ZM11.3007 6.53282C10.7145 6.53282 10.6489 6.21126 10.6489 5.8897V3.24939H11.1695V5.82845C11.1695 6.02532 11.2461 6.1347 11.4254 6.15001L11.5392 6.15439V6.48907C11.4604 6.51532 11.3729 6.53282 11.3007 6.53282Z" fill="#F3F3F3"/>
<path d="M2.63387 17.5L3.65566 14.6532H4.17541L5.19719 17.5H4.71681L4.46284 16.7853H3.37216L3.11622 17.5H2.63387ZM3.48634 16.3601H4.34275L3.91553 15.1178L3.48634 16.3601ZM6.03095 17.5295C5.50333 17.5295 5.44427 17.2401 5.44427 16.9507V14.5744H5.91283V16.8956C5.91283 17.0728 5.98173 17.1712 6.14317 17.185L6.24555 17.1889V17.4902C6.17467 17.5138 6.09592 17.5295 6.03095 17.5295ZM7.53025 15.8029H7.07547L7.07744 16.9704C7.07744 17.1515 7.13256 17.1712 7.28809 17.1712H7.54009V17.4744C7.48497 17.4961 7.38259 17.5157 7.20737 17.5157C6.72306 17.5157 6.59706 17.3149 6.59706 16.9881V15.8029H6.26631V15.4643H6.61084L6.73094 14.8599H7.07547V15.4623H7.53025V15.8029Z" fill="#F3F3F3"/>
</g>
<defs>
<linearGradient id="paint0_linear_24_2" x1="16" y1="17.5" x2="21.5" y2="11" gradientUnits="userSpaceOnUse">
<stop stop-color="#FFAAA3"/>
<stop offset="1" stop-color="#FF4174"/>
</linearGradient>
<clipPath id="clip0_24_2">
<rect width="21" height="21" fill="white"/>
</clipPath>
</defs>
</svg>
