<svg width="20" height="20" viewBox="0 0 20 20" fill="none" xmlns="http://www.w3.org/2000/svg">
<path d="M10.2112 14.34C11.5846 14.34 12.6979 15.4503 12.6979 16.82C12.6979 18.1897 11.5846 19.3 10.2112 19.3C8.8379 19.3 7.7246 18.1897 7.7246 16.82C7.7246 15.4503 8.8379 14.34 10.2112 14.34ZM10.2112 14.34V0.700012M8.34626 2.56001L10.2112 0.700012M10.2112 0.700012L12.0762 2.56001M4.24332 9.38001C4.92998 9.38001 5.48663 8.82485 5.48663 8.14001C5.48663 7.45518 4.92998 6.90001 4.24332 6.90001C3.55665 6.90001 3 7.45518 3 8.14001C3 8.82485 3.55665 9.38001 4.24332 9.38001ZM4.24332 9.38001V10.544C4.24344 11.6817 6.01447 12.6735 7.12118 12.9496L10.2112 13.72M16.1791 6.90001V8.28137C16.1791 9.31523 14.5413 10.2406 13.5707 10.6035L10.2112 11.86M14.9358 4.42001H17.4225V6.90001H14.9358V4.42001Z" stroke="#F3F3F3" stroke-width="1.4" stroke-linecap="round" stroke-linejoin="round"/>
</svg>