<svg width="20" height="20" viewBox="0 0 20 20" fill="none" xmlns="http://www.w3.org/2000/svg">
<path fill-rule="evenodd" clip-rule="evenodd" d="M18.9678 2.09185C19.2607 1.79896 19.2607 1.32409 18.9678 1.03119C18.6749 0.7383 18.2001 0.7383 17.9072 1.03119L10 8.93836L2.09283 1.03119C1.79994 0.7383 1.32506 0.7383 1.03217 1.03119C0.739277 1.32409 0.739277 1.79896 1.03217 2.09185L8.93934 9.99902L1.03217 17.9062C0.739277 18.1991 0.739277 18.674 1.03217 18.9669C1.32506 19.2597 1.79994 19.2597 2.09283 18.9669L10 11.0597L17.9072 18.9669C18.2001 19.2597 18.6749 19.2597 18.9678 18.9669C19.2607 18.674 19.2607 18.1991 18.9678 17.9062L11.0607 9.99902L18.9678 2.09185Z" fill="#F3F3F3"/>
</svg>