<svg width="22" height="22" viewBox="0 0 22 22" fill="none" xmlns="http://www.w3.org/2000/svg">
<path fill-rule="evenodd" clip-rule="evenodd" d="M19.625 7.24829C19.625 7.66251 19.9608 7.99829 20.375 7.99829C20.7892 7.99829 21.125 7.66251 21.125 7.24829V1.62329C21.125 1.41868 21.0431 1.2332 20.9102 1.09788L20.9004 1.08809C20.83 1.01897 20.7494 0.966527 20.6635 0.930771C20.5747 0.89374 20.4772 0.873291 20.375 0.873291H14.75C14.3358 0.873291 14 1.20908 14 1.62329C14 2.0375 14.3358 2.37329 14.75 2.37329L18.5643 2.37329L12.3447 8.59296C12.0518 8.88585 12.0518 9.36073 12.3447 9.65362C12.6376 9.94651 13.1124 9.94652 13.4053 9.65362L19.625 3.43395V7.24829ZM3.43566 19.6233H7.25C7.66421 19.6233 8 19.9591 8 20.3733C8 20.7875 7.66421 21.1233 7.25 21.1233H1.625C1.42206 21.1233 1.23795 21.0427 1.10293 20.9118C1.09738 20.9064 1.09192 20.9009 1.08653 20.8954C1.01902 20.8258 0.967671 20.7463 0.932479 20.6618C0.895449 20.573 0.875 20.4755 0.875 20.3733V14.7483C0.875 14.3341 1.21079 13.9983 1.625 13.9983C2.03921 13.9983 2.375 14.3341 2.375 14.7483L2.375 18.5626L8.59467 12.343C8.88756 12.0501 9.36244 12.0501 9.65533 12.343C9.94822 12.6359 9.94822 13.1107 9.65533 13.4036L3.43566 19.6233Z" fill="#F3F3F3"/>
</svg>