<svg width="20" height="20" viewBox="0 0 20 20" fill="none" xmlns="http://www.w3.org/2000/svg">
<path fill-rule="evenodd" clip-rule="evenodd" d="M4.78281 2.36667C4.78281 1.83279 5.2156 1.4 5.74948 1.4H17.4482C17.9821 1.4 18.4149 1.83278 18.4149 2.36667V10.5038C18.4149 11.0377 17.9821 11.4705 17.4482 11.4705H17.2132C16.8266 11.4705 16.5132 11.7839 16.5132 12.1705C16.5132 12.5571 16.8266 12.8705 17.2132 12.8705H17.4482C18.7553 12.8705 19.8149 11.8109 19.8149 10.5038V2.36667C19.8149 1.0596 18.7553 0 17.4482 0H5.74948C4.4438 0 3.38508 1.05733 3.38282 2.36248L3.37504 3.06728C3.37078 3.45386 3.6807 3.77069 4.06728 3.77496C4.45386 3.77922 4.77069 3.4693 4.77496 3.08272L4.78277 2.37439L4.78281 2.36667Z" fill="url(#paint0_linear_25_40)"/>
<path d="M3.10156 4.5H14.3105C15.1948 4.5 15.9121 5.21727 15.9121 6.10156V14.1074C15.912 14.9915 15.1947 15.708 14.3105 15.708H8.9082V18.1406H11.0752C11.1854 18.1407 11.2752 18.2296 11.2754 18.3398C11.2754 18.4502 11.1855 18.5399 11.0752 18.54H6.0752C5.96473 18.54 5.875 18.4503 5.875 18.3398C5.87516 18.2295 5.96484 18.1406 6.0752 18.1406H8.50781V15.708H3.10156C2.21736 15.708 1.50015 14.9916 1.5 14.1074V6.10156C1.5 5.21725 2.21726 4.5 3.10156 4.5ZM14.5117 14.1074C14.5116 14.2183 14.4215 14.3086 14.3105 14.3086H8.71387V14.3076L8.70215 14.3086H3.10156C2.99059 14.3086 2.90054 14.2184 2.90039 14.1074V6.10156C2.90039 5.99044 2.99047 5.90039 3.10156 5.90039H14.3105C14.4216 5.90039 14.5117 5.99048 14.5117 6.10156V14.1074ZM15.5117 6.10156C15.5117 5.43812 14.9739 4.90039 14.3105 4.90039H3.10156C2.43818 4.90039 1.90039 5.43816 1.90039 6.10156V14.1074C1.90054 14.7706 2.43822 15.3086 3.10156 15.3086H8.69629L8.70801 15.3076L8.71973 15.3086H14.3105C14.9738 15.3086 15.5116 14.7706 15.5117 14.1074V6.10156Z" stroke="white" stroke-miterlimit="3.99393"/>
<defs>
<linearGradient id="paint0_linear_25_40" x1="21.5" y1="13" x2="9.91855" y2="16.4606" gradientUnits="userSpaceOnUse">
<stop stop-color="#6368FF"/>
<stop offset="1" stop-color="#14B1FF"/>
</linearGradient>
</defs>
</svg>
