<svg width="21" height="21" viewBox="0 0 21 21" fill="none" xmlns="http://www.w3.org/2000/svg">
<g clip-path="url(#clip0_21_130)">
<g opacity="0.8">
<path d="M5.71252 6.34531C5.71252 6.47905 5.70416 6.61837 5.68745 6.76326H2.45254C2.47483 7.05303 2.56678 7.27594 2.72838 7.43197C2.89556 7.58243 3.09896 7.65766 3.33859 7.65766C3.69523 7.65766 3.94322 7.5072 4.08253 7.20628H5.60386C5.52584 7.51278 5.38374 7.78862 5.17755 8.03382C4.97694 8.27901 4.72338 8.47127 4.41689 8.61058C4.11039 8.7499 3.76768 8.81956 3.38874 8.81956C2.93178 8.81956 2.52498 8.72203 2.16834 8.52699C1.81169 8.33195 1.53306 8.05332 1.33244 7.6911C1.13183 7.32888 1.03152 6.90536 1.03152 6.42054C1.03152 5.93572 1.12904 5.5122 1.32408 5.14998C1.5247 4.78776 1.80333 4.50913 2.15998 4.31409C2.51662 4.11905 2.92621 4.02153 3.38874 4.02153C3.84012 4.02153 4.24135 4.11626 4.59243 4.30573C4.9435 4.4952 5.21656 4.76547 5.4116 5.11655C5.61222 5.46762 5.71252 5.87721 5.71252 6.34531ZM4.24971 5.96916C4.24971 5.72396 4.16612 5.52892 3.99894 5.38403C3.83176 5.23915 3.62279 5.1667 3.37202 5.1667C3.1324 5.1667 2.929 5.23636 2.76182 5.37568C2.60021 5.51499 2.49991 5.71282 2.4609 5.96916H4.24971ZM8.3975 4.74876C8.53682 4.53142 8.72907 4.35589 8.97427 4.22214C9.21946 4.0884 9.50645 4.02153 9.83524 4.02153C10.2197 4.02153 10.568 4.11905 10.8801 4.31409C11.1922 4.50913 11.4374 4.78776 11.6157 5.14998C11.7996 5.5122 11.8915 5.93294 11.8915 6.41218C11.8915 6.89143 11.7996 7.31495 11.6157 7.68274C11.4374 8.04496 11.1922 8.32638 10.8801 8.52699C10.568 8.72203 10.2197 8.81956 9.83524 8.81956C9.51203 8.81956 9.22504 8.75268 8.97427 8.61894C8.72907 8.4852 8.53682 8.31245 8.3975 8.10069V10.9762H6.96812V4.0884H8.3975V4.74876ZM10.4371 6.41218C10.4371 6.05554 10.3368 5.7769 10.1362 5.57629C9.94112 5.3701 9.69871 5.26701 9.40893 5.26701C9.12473 5.26701 8.88232 5.3701 8.68171 5.57629C8.48666 5.78248 8.38914 6.06389 8.38914 6.42054C8.38914 6.77719 8.48666 7.05861 8.68171 7.26479C8.88232 7.47098 9.12473 7.57407 9.40893 7.57407C9.69314 7.57407 9.93555 7.47098 10.1362 7.26479C10.3368 7.05303 10.4371 6.76883 10.4371 6.41218ZM13.8618 3.60358C13.6111 3.60358 13.4049 3.53114 13.2433 3.38625C13.0872 3.23579 13.0092 3.05189 13.0092 2.83456C13.0092 2.61166 13.0872 2.42776 13.2433 2.28287C13.4049 2.13241 13.6111 2.05718 13.8618 2.05718C14.107 2.05718 14.3076 2.13241 14.4637 2.28287C14.6253 2.42776 14.7061 2.61166 14.7061 2.83456C14.7061 3.05189 14.6253 3.23579 14.4637 3.38625C14.3076 3.53114 14.107 3.60358 13.8618 3.60358ZM14.5723 4.0884V8.75268H13.143V4.0884H14.5723ZM15.8255 6.42054C15.8255 5.93572 15.923 5.5122 16.1181 5.14998C16.3187 4.78776 16.5945 4.50913 16.9456 4.31409C17.3023 4.11905 17.7091 4.02153 18.166 4.02153C18.7511 4.02153 19.2388 4.17478 19.6288 4.48127C20.0245 4.78776 20.2836 5.21964 20.4062 5.7769H18.8849C18.7567 5.42026 18.5087 5.24193 18.1409 5.24193C17.879 5.24193 17.6701 5.34503 17.514 5.55121C17.358 5.75183 17.28 6.0416 17.28 6.42054C17.28 6.79948 17.358 7.09204 17.514 7.29823C17.6701 7.49884 17.879 7.59915 18.1409 7.59915C18.5087 7.59915 18.7567 7.42083 18.8849 7.06418H20.4062C20.2836 7.6103 20.0245 8.03939 19.6288 8.35146C19.2332 8.66352 18.7456 8.81956 18.166 8.81956C17.7091 8.81956 17.3023 8.72203 16.9456 8.52699C16.5945 8.33195 16.3187 8.05332 16.1181 7.6911C15.923 7.32888 15.8255 6.90536 15.8255 6.42054Z" fill="white"/>
<path d="M5.59198 18.7527L4.21777 16.7566L3.04418 18.7527H0.807331L3.10437 15.1316L0.727085 11.681H3.04418L4.37827 13.627L5.52177 11.681H7.75862L5.49168 15.2419L7.90908 18.7527H5.59198ZM12.4957 13.5267C12.4489 13.2993 12.372 13.1321 12.265 13.0251C12.158 12.9181 12.0009 12.8647 11.7936 12.8647C11.4793 12.8647 11.2586 13.0118 11.1315 13.306C11.0112 13.6002 10.9476 14.0616 10.9409 14.6902C11.0747 14.4829 11.2686 14.3191 11.5227 14.1987C11.7768 14.0784 12.0577 14.0182 12.3653 14.0182C13.014 14.0182 13.5322 14.2188 13.9201 14.62C14.3146 15.0213 14.5119 15.5963 14.5119 16.3453C14.5119 16.8402 14.4082 17.2748 14.2009 17.6493C14.0003 18.0171 13.7061 18.3013 13.3182 18.5019C12.9371 18.7025 12.4857 18.8028 11.9641 18.8028C10.9276 18.8028 10.2054 18.4819 9.79744 17.8399C9.39621 17.1912 9.1956 16.2751 9.1956 15.0915C9.1956 13.7808 9.40958 12.8178 9.83756 12.2026C10.2655 11.5874 10.9543 11.2798 11.9039 11.2798C12.6729 11.2798 13.2547 11.4971 13.6492 11.9318C14.0505 12.3598 14.2745 12.8914 14.3213 13.5267H12.4957ZM11.8838 15.5429C11.6498 15.5429 11.4559 15.6097 11.302 15.7435C11.1549 15.8772 11.0814 16.0678 11.0814 16.3152C11.0814 16.576 11.1516 16.7766 11.292 16.9171C11.4324 17.0575 11.6331 17.1277 11.8939 17.1277C12.1346 17.1277 12.3218 17.0608 12.4556 16.9271C12.596 16.7867 12.6662 16.5894 12.6662 16.3353C12.6662 16.0879 12.596 15.8939 12.4556 15.7535C12.3218 15.6131 12.1313 15.5429 11.8838 15.5429ZM20.6784 12.8847L18.271 18.7527H16.2549L18.6823 13.1154H15.8236V11.4303H20.6784V12.8847Z" fill="url(#paint0_linear_21_130)"/>
</g>
</g>
<defs>
<linearGradient id="paint0_linear_21_130" x1="-10.55" y1="11.2527" x2="32" y2="11.2527" gradientUnits="userSpaceOnUse">
<stop offset="0.25" stop-color="#56FF97"/>
<stop offset="0.754808" stop-color="#B1FFB1"/>
</linearGradient>
<clipPath id="clip0_21_130">
<rect width="21" height="21" fill="white"/>
</clipPath>
</defs>
</svg>
