<svg width="22" height="22" viewBox="0 0 22 22" fill="none" xmlns="http://www.w3.org/2000/svg">
<g clip-path="url(#clip0_24_28)">
<path fill-rule="evenodd" clip-rule="evenodd" d="M2.98868 0.924988C1.84897 0.924988 0.925049 1.84891 0.925049 2.98862V19.0114C0.925049 20.1511 1.84897 21.075 2.98868 21.075H19.0114C20.1511 21.075 21.075 20.1511 21.075 19.0114V2.98862C21.075 1.84891 20.1511 0.924988 19.0114 0.924988H2.98868ZM2.32505 2.98862C2.32505 2.62211 2.62217 2.32499 2.98868 2.32499H19.0114C19.3779 2.32499 19.675 2.62211 19.675 2.98862V19.0114C19.675 19.3779 19.3779 19.675 19.0114 19.675H2.98868C2.62217 19.675 2.32505 19.3779 2.32505 19.0114V2.98862ZM5.3754 7.18657C4.9888 7.18657 4.6754 7.49997 4.6754 7.88657C4.6754 8.27317 4.9888 8.58657 5.3754 8.58657H9.77169C10.0766 9.66854 11.0709 10.4616 12.2504 10.4616C13.4529 10.4616 14.4629 9.6373 14.7462 8.52294H16.6254C16.9769 8.52294 17.2618 8.23803 17.2618 7.88657C17.2618 7.53512 16.9769 7.25021 16.6254 7.25021H14.7462C14.4629 6.13585 13.4529 5.31157 12.2504 5.31157C11.0709 5.31157 10.0766 6.10461 9.77169 7.18657H5.3754ZM12.2504 9.06157C11.6015 9.06157 11.0754 8.53551 11.0754 7.88657C11.0754 7.23764 11.6015 6.71157 12.2504 6.71157C12.8993 6.71157 13.4254 7.23764 13.4254 7.88657C13.4254 8.53551 12.8993 9.06157 12.2504 9.06157Z" fill="#F3F3F3"/>
<path d="M7.82912 12.0127C8.41857 12.0712 8.97297 12.3315 9.39553 12.7539C9.7095 13.0679 9.93413 13.4551 10.0528 13.875H16.9502C17.3367 13.8752 17.6504 14.1887 17.6504 14.5752L17.6358 14.7158C17.5799 14.9894 17.3644 15.2048 17.0908 15.2607L16.9502 15.2754H10.0537C9.74868 16.357 8.75443 17.1503 7.57522 17.1504L7.31155 17.1367C6.09967 17.0135 5.13667 16.0498 5.01369 14.8379L5.00002 14.5752C5.00002 13.153 6.15309 12 7.57522 12L7.82912 12.0127ZM7.59377 13.3477C6.93305 13.3479 6.39748 13.8832 6.39748 14.5439C6.3975 15.2047 6.93306 15.74 7.59377 15.7402C8.25466 15.7402 8.79103 15.2048 8.79104 14.5439C8.79104 13.8831 8.25467 13.3477 7.59377 13.3477Z" fill="url(#paint0_linear_24_28)"/>
</g>
<defs>
<linearGradient id="paint0_linear_24_28" x1="11.3252" y1="12" x2="11.3252" y2="17.1504" gradientUnits="userSpaceOnUse">
<stop stop-color="#A8FF72"/>
<stop offset="1" stop-color="#00FFCC"/>
</linearGradient>
<clipPath id="clip0_24_28">
<rect width="22" height="22" fill="white"/>
</clipPath>
</defs>
</svg>
