<svg width="22" height="22" viewBox="0 0 22 22" fill="none" xmlns="http://www.w3.org/2000/svg">
<path fill-rule="evenodd" clip-rule="evenodd" d="M20.9053 2.15362C21.1982 1.86073 21.1982 1.38585 20.9053 1.09296C20.6124 0.800068 20.1376 0.800068 19.8447 1.09296L13.625 7.31263V3.49829C13.625 3.08408 13.2892 2.74829 12.875 2.74829C12.4608 2.74829 12.125 3.08408 12.125 3.49829V9.12329C12.125 9.32791 12.2069 9.51339 12.3398 9.6487L12.3496 9.65849C12.4203 9.72798 12.5015 9.78061 12.5879 9.81638C12.6763 9.85305 12.7733 9.87329 12.875 9.87329H18.5C18.9142 9.87329 19.25 9.5375 19.25 9.12329C19.25 8.70908 18.9142 8.37329 18.5 8.37329H14.6857L20.9053 2.15362ZM9.125 12.1233H3.5C3.08579 12.1233 2.75 12.4591 2.75 12.8733C2.75 13.2875 3.08579 13.6233 3.5 13.6233H7.31434L1.09467 19.843C0.801777 20.1359 0.801777 20.6107 1.09467 20.9036C1.38756 21.1965 1.86244 21.1965 2.15533 20.9036L8.375 14.684V18.4983C8.375 18.9125 8.71079 19.2483 9.125 19.2483C9.53921 19.2483 9.875 18.9125 9.875 18.4983V12.8733C9.875 12.6687 9.79306 12.4832 9.6602 12.3479C9.65697 12.3446 9.65371 12.3413 9.65041 12.3381C9.57965 12.2686 9.49854 12.216 9.41209 12.1802C9.32366 12.1435 9.22669 12.1233 9.125 12.1233Z" fill="#F3F3F3"/>
</svg>