<svg width="22" height="22" viewBox="0 0 22 22" fill="none" xmlns="http://www.w3.org/2000/svg">
<g clip-path="url(#clip0_27_100)">
<path fill-rule="evenodd" clip-rule="evenodd" d="M12.3054 8.93161C12.3054 8.56592 12.6467 8.16684 13.1996 8.16684C13.7524 8.16684 14.0937 8.56592 14.0937 8.93161V13.5171C14.0937 13.8873 14.3639 14.2022 14.7299 14.2584L16.9144 14.5936C18.1795 14.7878 19.0259 15.774 19.0261 16.8405V20.3335C19.0261 20.7477 19.3618 21.0835 19.7761 21.0835C20.1903 21.0835 20.5261 20.7477 20.5261 20.3335V16.8405C20.5259 14.9451 19.048 13.4036 17.142 13.111L15.5937 12.8734V8.93161C15.5937 7.62413 14.4628 6.66684 13.1996 6.66684C11.9364 6.66684 10.8054 7.62413 10.8054 8.93161V14.618L10.5843 14.5161L10.5832 14.5156C9.90369 14.2007 9.111 14.1879 8.42105 14.4796C7.72888 14.7723 7.19254 15.3514 6.99627 16.0781C6.74051 17.0223 7.11421 17.9942 7.89556 18.5701L11.106 20.9372C11.4394 21.183 11.9089 21.112 12.1547 20.7786C12.4005 20.4452 12.3295 19.9757 11.9961 19.7298L8.78572 17.3628C8.47107 17.1309 8.36 16.7806 8.44414 16.4702C8.51125 16.2215 8.70581 15.9878 9.0052 15.8612C9.30655 15.7338 9.65822 15.74 9.95295 15.8767L9.95485 15.8776L11.2416 16.4704C11.4739 16.5774 11.7446 16.5587 11.9599 16.4208C12.1752 16.2829 12.3054 16.0449 12.3054 15.7892V8.93161Z" fill="url(#paint0_linear_27_100)"/>
<path fill-rule="evenodd" clip-rule="evenodd" d="M0.917358 2.49984C0.917358 1.62539 1.62624 0.916504 2.50069 0.916504H15.0007C15.8751 0.916504 16.584 1.62539 16.584 2.49984V5.78419C16.584 6.1984 16.2482 6.53419 15.834 6.53419C15.4198 6.53419 15.084 6.1984 15.084 5.78419V2.49984C15.084 2.45381 15.0467 2.4165 15.0007 2.4165H2.50069C2.45467 2.4165 2.41736 2.45381 2.41736 2.49984V7.49984C2.41736 7.54586 2.45467 7.58317 2.50069 7.58317H9.1934C9.60761 7.58317 9.9434 7.91896 9.9434 8.33317C9.9434 8.74738 9.60761 9.08317 9.1934 9.08317H2.50069C1.62624 9.08317 0.917358 8.37429 0.917358 7.49984V2.49984ZM2.50069 10.25C1.62624 10.25 0.917358 10.9589 0.917358 11.8333V16.8333C0.917358 17.7078 1.62624 18.4167 2.50069 18.4167H5.41736C5.83157 18.4167 6.16736 18.0809 6.16736 17.6667C6.16736 17.2525 5.83157 16.9167 5.41736 16.9167H2.50069C2.45467 16.9167 2.41736 16.8794 2.41736 16.8333V11.8333C2.41736 11.7873 2.45467 11.75 2.50069 11.75H7.50069C7.54672 11.75 7.58402 11.7873 7.58402 11.8333V12.25C7.58402 12.6642 7.91981 13 8.33402 13C8.74824 13 9.08402 12.6642 9.08402 12.25V11.8333C9.08402 10.9589 8.37514 10.25 7.50069 10.25H2.50069ZM19.5827 11.8333V13.0833C19.5827 13.4975 19.9185 13.8333 20.3327 13.8333C20.7469 13.8333 21.0827 13.4975 21.0827 13.0833V11.8333C21.0827 10.9589 20.3738 10.25 19.4994 10.25H16.9994C16.5852 10.25 16.2494 10.5858 16.2494 11C16.2494 11.4142 16.5852 11.75 16.9994 11.75H19.4994C19.5454 11.75 19.5827 11.7873 19.5827 11.8333Z" fill="#F3F3F3"/>
</g>
<defs>
<linearGradient id="paint0_linear_27_100" x1="13.7212" y1="6.66684" x2="13.7212" y2="21.0836" gradientUnits="userSpaceOnUse">
<stop stop-color="#3CFFE8"/>
<stop offset="1" stop-color="#CB6BFF"/>
</linearGradient>
<clipPath id="clip0_27_100">
<rect width="22" height="22" fill="white"/>
</clipPath>
</defs>
</svg>
