<svg width="21" height="20" viewBox="0 0 21 20" fill="none" xmlns="http://www.w3.org/2000/svg">
<g clip-path="url(#clip0_27_109)">
<path d="M1.39403 10.5547H18.9189V11.9488H1.39403L1.39403 10.5547Z" fill="url(#paint0_linear_27_109)"/>
<path fill-rule="evenodd" clip-rule="evenodd" d="M2.7 0C1.20883 0 0 1.20883 0 2.7V13.1C0 14.5912 1.20883 15.8 2.7 15.8H6.75723L6.32393 18.5731H5.075C4.6884 18.5731 4.375 18.8865 4.375 19.2731C4.375 19.6597 4.6884 19.9731 5.075 19.9731H15.075C15.4616 19.9731 15.775 19.6597 15.775 19.2731C15.775 18.8865 15.4616 18.5731 15.075 18.5731H13.8261L13.3928 15.8H17.45C18.9412 15.8 20.15 14.5912 20.15 13.1V2.7C20.15 1.20883 18.9412 0 17.45 0H2.7ZM1.4 2.7C1.4 1.98203 1.98203 1.4 2.7 1.4H17.45C18.168 1.4 18.75 1.98203 18.75 2.7V12.8005H1.4V2.7ZM1.4 12.8005V13.1C1.4 13.818 1.98203 14.4 2.7 14.4H17.45C18.168 14.4 18.75 13.818 18.75 13.1V12.8005H1.4ZM11.9759 15.8006L12.3821 18.4006H7.76787L8.17412 15.8006H11.9759Z" fill="#F3F3F3"/>
</g>
<defs>
<linearGradient id="paint0_linear_27_109" x1="1.39403" y1="11.1522" x2="18.9189" y2="11.1522" gradientUnits="userSpaceOnUse">
<stop stop-color="#A8FF72"/>
<stop offset="0.461538" stop-color="#FFA024"/>
<stop offset="1" stop-color="#B224FF"/>
</linearGradient>
<clipPath id="clip0_27_109">
<rect width="21" height="20" fill="white"/>
</clipPath>
</defs>
</svg>
